<svg class="h-8 w-auto" width="151" height="30" xmlns="http://www.w3.org/2000/svg" viewBox="0 0 151 30">
  <path fill="#7c3aed"
    d="M4.007 10.969c-.793 0-1.567.236-2.226.678a4.021 4.021 0 00-1.476 1.807 4.042 4.042 0 00.869 4.386 4.001 4.001 0 004.366.873 4.011 4.011 0 001.798-1.483 4.038 4.038 0 00-.5-5.08 4.004 4.004 0 00-2.831-1.181z" />
  <path fill="#7c3aed"
    d="M14.258 25.865a4.043 4.043 0 01-1.133 2.917A4.006 4.006 0 0110.253 30a3.992 3.992 0 01-2.872-1.218 4.028 4.028 0 01-1.133-2.917c.009-.698.2-1.382.557-1.981.356-.6.863-1.094 1.47-1.433-.024.109.09-.055 0 0l1.86-1.652a8.495 8.495 0 002.304-5.793c0-2.926-1.711-5.901-4.17-7.457.094.055-.036-.094 0 0A3.952 3.952 0 016.8 6.116a3.975 3.975 0 01-.557-1.98 4.042 4.042 0 011.133-2.918A4.006 4.006 0 0110.247 0a3.99 3.99 0 012.872 1.218 4.025 4.025 0 011.133 2.917A8.521 8.521 0 0016.6 9.967l.817.8c.326.285.668.551 1.024.798.621.33 1.142.826 1.504 1.431a3.902 3.902 0 01-1.504 5.442c.033-.067-.063.036 0 0a8.968 8.968 0 00-3.024 3.183 9.016 9.016 0 00-1.158 4.244zM18.741 4.123c0 .796.235 1.575.676 2.237a4.01 4.01 0 001.798 1.482 3.99 3.99 0 004.366-.873 4.042 4.042 0 00.869-4.386A4.02 4.02 0 0024.974.777a3.994 3.994 0 00-5.058.501 4.038 4.038 0 00-1.175 2.845zM22.748 21.84c-.792 0-1.567.236-2.226.678a4.021 4.021 0 00-1.476 1.806 4.042 4.042 0 00.869 4.387 3.99 3.99 0 004.366.873A4.01 4.01 0 0026.08 28.1a4.039 4.039 0 00-.5-5.082 4 4 0 00-2.832-1.18zM33 14.994c0-.796-.235-1.574-.675-2.236a4.01 4.01 0 00-1.798-1.483 3.99 3.99 0 00-4.367.873 4.042 4.042 0 00-.869 4.387 4.02 4.02 0 001.476 1.806 3.993 3.993 0 002.226.678 4.003 4.003 0 002.832-1.18A4.04 4.04 0 0033 14.993z" />
  <path fill="#18181b"
    d="M49.368 16.878h9.802c.078-.442.13-.884.13-1.378 0-3.822-2.73-6.864-6.578-6.864-4.082 0-6.864 2.99-6.864 6.864 0 3.874 2.756 6.864 7.124 6.864 2.496 0 4.446-1.014 5.668-2.782l-2.704-1.56c-.572.754-1.612 1.3-2.912 1.3-1.768 0-3.198-.728-3.666-2.444zm-.052-2.6c.39-1.664 1.612-2.626 3.406-2.626 1.404 0 2.808.754 3.224 2.626h-6.63zM71.42 9v1.534c-.936-1.17-2.34-1.898-4.238-1.898-3.458 0-6.318 2.99-6.318 6.864 0 3.874 2.86 6.864 6.318 6.864 1.898 0 3.302-.728 4.238-1.898V22h3.354V9H71.42zm-3.614 10.166c-2.054 0-3.588-1.482-3.588-3.666s1.534-3.666 3.588-3.666c2.08 0 3.614 1.482 3.614 3.666s-1.534 3.666-3.614 3.666zm13.002-6.474c0-.702.676-1.066 1.508-1.066.962 0 1.69.494 2.08 1.326l2.86-1.56c-1.014-1.794-2.834-2.756-4.94-2.756-2.678 0-4.94 1.482-4.94 4.134 0 4.576 6.708 3.536 6.708 5.434 0 .754-.728 1.118-1.794 1.118-1.3 0-2.184-.624-2.548-1.69L76.83 19.27c.936 2.002 2.86 3.094 5.46 3.094 2.782 0 5.226-1.352 5.226-4.16 0-4.784-6.708-3.588-6.708-5.512zM97.615 9l-2.885 8.736L91.35 9h-3.666l5.33 12.584c-.624 1.742-1.56 2.522-3.406 2.496v3.12c3.301.182 5.511-1.456 6.864-5.2l4.731-13h-3.588zm19.823 0l-2.21 8.008L112.862 9h-3.172l-2.366 7.982L105.114 9h-3.562l4.134 13h3.198l2.392-7.878L113.668 22h3.198L121 9h-3.562zm7.033-1.56c1.144 0 2.08-.936 2.08-2.054 0-1.118-.936-2.08-2.08-2.08-1.118 0-2.054.962-2.054 2.08s.936 2.054 2.054 2.054zM122.807 22h3.354V9h-3.354v13zm9.778-10.764V9h-3.354v13h3.354v-6.214c0-2.73 2.21-3.51 3.952-3.302V8.74c-1.638 0-3.276.728-3.952 2.496zm8.265 5.642h9.802c.078-.442.13-.884.13-1.378 0-3.822-2.73-6.864-6.578-6.864-4.082 0-6.864 2.99-6.864 6.864 0 3.874 2.756 6.864 7.124 6.864 2.496 0 4.446-1.014 5.668-2.782l-2.704-1.56c-.572.754-1.612 1.3-2.912 1.3-1.768 0-3.198-.728-3.666-2.444zm-.052-2.6c.39-1.664 1.612-2.626 3.406-2.626 1.404 0 2.808.754 3.224 2.626h-6.63z" />
</svg>
